<?xml version="1.0" encoding="utf-8"?>
<!-- Generator: Adobe Illustrator 24.1.0, SVG Export Plug-In . SVG Version: 6.00 Build 0)  -->
<svg version="1.1" id="Layer_1" xmlns="http://www.w3.org/2000/svg" xmlns:xlink="http://www.w3.org/1999/xlink" x="0px" y="0px"
	 viewBox="0 0 504 504" style="enable-background:new 0 0 504 504;" xml:space="preserve">
<style type="text/css">
	.st0{display:none;}
	.st1{display:inline;}
	.st2{fill:#FFFFFF;}
	.st3{fill:#F5A11B;}
	.st4{fill:#4AAB27;}
	.st5{fill:#C6100E;}
</style>
<g id="Descargar" class="st0">
	<g class="st1">
		<path class="st2" d="M433.9,246.5c-5,0-9.1,4.1-9.1,9.1v114.8c0,15-12.2,27.2-27.3,27.3h-291c-15,0-27.2-12.2-27.3-27.3V255.6
			c0-5-4.1-9.1-9.1-9.1s-9.1,4.1-9.1,9.1v114.8c0,25.1,20.4,45.5,45.5,45.5h291c25.1,0,45.5-20.4,45.5-45.5V255.6
			C443,250.6,438.9,246.5,433.9,246.5z"/>
		<path class="st2" d="M185.4,298.4l57.8,49.6c0.1,0,0.1,0,0.1,0.1l0.3,0.3c0.1,0.1,0.3,0.2,0.4,0.3c0.1,0.1,0.2,0.2,0.4,0.2
			c0.1,0.1,0.3,0.2,0.4,0.3c0.1,0.1,0.3,0.1,0.4,0.2c0.1,0.1,0.3,0.1,0.5,0.2c0.1,0.1,0.3,0.1,0.4,0.2c0.2,0.1,0.3,0.1,0.5,0.2
			c0.1,0,0.3,0.1,0.4,0.1c0.2,0,0.3,0.1,0.5,0.1c0.1,0,0.3,0.1,0.4,0.1c0.2,0,0.4,0.1,0.5,0.1h2.4c0.2,0,0.4-0.1,0.5-0.1
			s0.3-0.1,0.4-0.1c0.2,0,0.3-0.1,0.5-0.1c0.1,0,0.3-0.1,0.4-0.1c0.2-0.1,0.3-0.1,0.5-0.2c0.1-0.1,0.3-0.1,0.4-0.2
			c0.2-0.1,0.3-0.1,0.5-0.2c0.1-0.1,0.3-0.1,0.4-0.2c0.1-0.1,0.3-0.2,0.4-0.3c0.1-0.1,0.2-0.1,0.4-0.2c0.1-0.1,0.3-0.2,0.4-0.3
			l0.3-0.3c0.1,0,0.1,0,0.1-0.1l57.8-49.6c3.8-3.3,4.3-9,1-12.8s-9-4.3-12.8-1l-42.9,36.7V97.2c0-5-4.1-9.1-9.1-9.1
			s-9.1,4.1-9.1,9.1v224.1L198,284.6c-3.8-3.3-9.6-2.8-12.8,1C181.2,289.4,181.6,295.2,185.4,298.4z"/>
	</g>
</g>
<g id="editar" class="st0">
	<g class="st1">
		<path class="st3" d="M398.4,77.3c-20.4-20.4-53.5-20.4-73.9,0L306,95.9L109,292.8l-0.4,0.4c-0.1,0.1-0.1,0.2-0.2,0.2
			c-0.2,0.3-0.5,0.6-0.7,0.9c0,0.1-0.1,0.1-0.1,0.2c-0.2,0.3-0.3,0.5-0.5,0.8c-0.1,0.1-0.1,0.2-0.2,0.3c-0.1,0.3-0.2,0.5-0.3,0.8
			c0,0.1-0.1,0.1-0.1,0.2l-44,131.7c-1.3,3.7-0.3,7.9,2.5,10.7c2,2,4.6,3,7.4,3c1.1,0,2.3-0.2,3.3-0.5l131.4-43.8
			c0.1,0,0.1,0,0.2-0.1c0.3-0.1,0.6-0.2,0.9-0.4c0.1,0,0.2,0,0.2-0.1c0.3-0.2,0.7-0.4,1-0.6s0.6-0.5,0.9-0.7
			c0.1-0.1,0.2-0.1,0.2-0.2c0.1-0.1,0.3-0.2,0.4-0.4l215.6-215.6c20.4-20.4,20.4-53.5,0-73.9L398.4,77.3z M203.8,373.1L131,300.3
			l182.2-182.2l72.8,72.8L203.8,373.1z M120.8,319.6l63.6,63.6L88.9,415L120.8,319.6z M412,164.8L400.9,176l-72.8-72.8L339.3,92
			c12.2-12.2,32.1-12.2,44.3,0l28.4,28.4C424.2,132.8,424.2,152.6,412,164.8z"/>
	</g>
</g>
<g id="Capa_5" class="st0">
	<g class="st1">
		<g>
			<path class="st4" d="M429.2,170c-26-22-52.5-39.6-78.9-52.2c-33.3-16-66.4-24.1-98.4-24.1s-65.1,8.1-98.4,24.1
				c-26.3,12.6-52.8,30.2-78.9,52.2c-44.1,37.3-71.1,74.2-72.3,75.7c-2.7,3.7-2.7,8.8,0,12.5c1.1,1.5,28.2,38.4,72.3,75.7
				c26,22,52.5,39.6,78.9,52.3c33.3,16,66.4,24.1,98.4,24.1s65.1-8.1,98.4-24.1c26.3-12.6,52.8-30.2,78.9-52.3
				c44.1-37.3,71.1-74.2,72.3-75.7c2.7-3.7,2.7-8.8,0-12.5C500.4,244.2,473.3,207.4,429.2,170z M252,389.1
				c-65.4,0-124.8-38.6-163.2-71c-23.5-20-45-42.1-64.4-66.1C46.5,224.4,141.1,114.9,252,114.9c65.4,0,124.8,38.6,163.2,71
				c23.5,20,45,42.1,64.4,66.1C457.5,279.6,362.9,389.1,252,389.1L252,389.1z"/>
			<path class="st4" d="M252,138.6c-62.6,0-113.4,50.8-113.4,113.4S189.4,365.4,252,365.4S365.4,314.6,365.4,252
				C365.3,189.4,314.6,138.7,252,138.6z M252,344.2c-50.9,0-92.2-41.3-92.2-92.2s41.3-92.2,92.2-92.2s92.2,41.3,92.2,92.2
				C344.1,302.9,302.9,344.1,252,344.2L252,344.2z"/>
		</g>
	</g>
</g>
<g id="Capa_6" class="st0">
	<g class="st1">
		<g>
			<path class="st5" d="M252,271.6c-4.5,0-8.2,3.7-8.2,8.2v99.8c0,4.5,3.7,8.2,8.2,8.2s8.2-3.7,8.2-8.2v-99.8
				C260.1,275.3,256.5,271.6,252,271.6z"/>
			<path class="st5" d="M304.3,271.6c-4.5,0-8.2,3.7-8.2,8.2v99.8c0,4.5,3.7,8.2,8.2,8.2s8.2-3.7,8.2-8.2v-99.8
				C312.5,275.3,308.8,271.6,304.3,271.6z"/>
			<path class="st5" d="M199.6,271.6c-4.5,0-8.2,3.7-8.2,8.2v99.8c0,4.5,3.7,8.2,8.2,8.2s8.2-3.7,8.2-8.2v-99.8
				C207.8,275.3,204.1,271.6,199.6,271.6z"/>
			<path class="st5" d="M361.2,104.6h-46.8V80.8c0-10-8.1-18.1-18.1-18.1h-88.8c-10,0-18.1,8.1-18.1,18.1v23.9h-46.8
				c-18,0-33.4,13-36.4,30.7s7.3,35.1,24.3,41c-0.2,0.6-0.2,1.2-0.2,1.8v222.3c0,22.6,18.3,40.9,40.9,40.9h161.5
				c22.6,0,40.9-18.3,40.9-40.9V178.2c0-0.6-0.1-1.2-0.2-1.8c17-5.9,27.3-23.3,24.3-41.1C394.6,117.5,379.2,104.5,361.2,104.6z
				 M205.9,80.8c0-0.9,0.8-1.7,1.7-1.7h88.8c0.9,0,1.7,0.8,1.7,1.7v23.9h-92.2L205.9,80.8L205.9,80.8z M332.7,425H171.2
				c-13.5,0-24.5-11-24.5-24.5v-222h210.6v222C357.2,414,346.2,424.9,332.7,425z M361.2,162H142.7c-11.3,0-20.5-9.2-20.5-20.5
				s9.2-20.5,20.5-20.5h218.5c11.3,0,20.5,9.2,20.5,20.5S372.6,162,361.2,162z"/>
		</g>
	</g>
</g>
<g id="Graficos" class="st0">
	<g class="st1">
		<path class="st2" d="M220.4,58.7c0-7-5.7-12.6-12.6-12.6H80.2c-7,0-12.6,5.7-12.6,12.6v327.2c0,7,5.7,12.6,12.6,12.6h127.6
			c7,0,12.6-5.7,12.6-12.6V58.7z M92.8,71.4h102.3v303.2H92.8V71.4z"/>
		<path class="st2" d="M425.1,186.3c0-7-5.7-12.6-12.6-12.6H296.2c-7,0-12.6,5.7-12.6,12.6v200.8c0,7,5.7,12.6,12.6,12.6h116.2
			c7,0,12.6-5.7,12.6-12.6L425.1,186.3L425.1,186.3z M308.8,198.9h90.9v175.6h-90.9V198.9z"/>
		<path class="st2" d="M492,432.6H12c-7,0-12.6,5.7-12.6,12.6c0,7,5.7,12.6,12.6,12.6h480c7,0,12.6-5.7,12.6-12.6
			C504.6,438.3,499,432.6,492,432.6z"/>
	</g>
</g>
<g id="reporte">
	<g>
		<path d="M408.2,46.8c-1.8-1.8-4.3-2.8-6.8-2.8s-5,1-6.8,2.8L257.3,184.1l-0.4,0.4l-0.2,0.2c-0.2,0.3-0.5,0.6-0.7,0.9
			c0,0.1-0.1,0.1-0.1,0.2c-0.2,0.3-0.3,0.5-0.5,0.8c-0.1,0.1-0.1,0.2-0.2,0.3c-0.1,0.3-0.2,0.5-0.3,0.8c0,0.1-0.1,0.1-0.1,0.2
			l-24.5,73.7c-1.2,3.4-0.3,7.2,2.3,9.8c1.8,1.8,4.3,2.8,6.8,2.8c1,0,2.1-0.2,3.1-0.5l73.6-24.5c0.1,0,0.1,0,0.2-0.1
			c0.3-0.1,0.6-0.2,0.9-0.4c0.1,0,0.1,0,0.2-0.1c0.3-0.2,0.7-0.4,1-0.6c0.3-0.2,0.6-0.5,0.9-0.7c0.1-0.1,0.2-0.1,0.2-0.2
			c0.1-0.1,0.3-0.2,0.4-0.4l137.4-137.4c1.8-1.8,2.8-4.2,2.8-6.8c0-2.5-1-5-2.8-6.8L408.2,46.8z M268.2,208.7l27.1,27.1l-40.7,13.5
			L268.2,208.7z M313.1,226.4l-35.5-35.5L401.4,67.1l35.5,35.5L313.1,226.4z"/>
		<path d="M385.6,223.2c-5.3,0-9.6,4.3-9.6,9.6V412c0,15.9-12.9,28.7-28.8,28.8H91.9C76,440.7,63.2,427.9,63.1,412V156.8
			c0-15.9,12.9-28.7,28.8-28.8h179.2c5.3,0,9.6-4.3,9.6-9.6s-4.3-9.6-9.6-9.6H91.9c-26.5,0-47.9,21.5-47.9,47.9V412
			c0,26.5,21.5,47.9,47.9,47.9h255.3c26.5,0,47.9-21.5,47.9-47.9V232.8C395.1,227.5,390.9,223.2,385.6,223.2z"/>
	</g>
</g>
<g id="Administrar" class="st0">
	<g class="st1">
		<path class="st2" d="M455,338.7h-23.3V321c0-16.1-13.1-29.2-29.2-29.2h-141V198c40-5,69.1-40.3,66.6-80.4
			C325.6,77.3,292.3,46,252,46s-73.6,31.3-76.1,71.5s26.6,75.4,66.6,80.4v93.9h-141c-16.1,0-29.2,13.1-29.2,29.2v17.6H49
			c-15.8,0-28.6,12.8-28.6,28.6v62.1c0,15.8,12.8,28.6,28.6,28.6h64c15.8,0,28.6-12.8,28.6-28.6v-62.1c0-15.8-12.8-28.6-28.6-28.6
			H91.4V321c0-5.6,4.5-10.1,10.2-10.2h140.9v27.8H220c-15.8,0-28.6,12.8-28.6,28.6v62.1c0,15.8,12.8,28.6,28.6,28.6h64
			c15.8,0,28.6-12.8,28.6-28.6v-62.1c0-15.8-12.8-28.6-28.6-28.6h-22.4v-27.8h140.9c5.6,0,10.1,4.6,10.2,10.2v17.6H391
			c-15.8,0-28.6,12.8-28.6,28.6v62.1c0,15.8,12.8,28.6,28.6,28.6h64c15.8,0,28.6-12.8,28.6-28.6v-62.1
			C483.6,351.5,470.8,338.7,455,338.7z M194.8,122.3c0-31.6,25.6-57.2,57.2-57.2s57.2,25.6,57.2,57.2s-25.6,57.2-57.2,57.2
			S194.8,153.9,194.8,122.3z M122.5,367.3v62.1c0,5.3-4.3,9.5-9.5,9.5H49c-5.3,0-9.5-4.3-9.5-9.5v-62.1c0-5.3,4.3-9.5,9.5-9.5h64
			C118.2,357.8,122.5,362,122.5,367.3z M293.5,367.3v62.1c0,5.3-4.3,9.5-9.5,9.5h-64c-5.3,0-9.5-4.3-9.5-9.5v-62.1
			c0-5.3,4.3-9.5,9.5-9.5h64C289.2,357.8,293.5,362,293.5,367.3z M464.5,429.4c0,5.3-4.3,9.5-9.5,9.5h-64c-5.3,0-9.5-4.3-9.5-9.5
			v-62.1c0-5.3,4.3-9.5,9.5-9.5h64c5.3,0,9.5,4.3,9.5,9.5V429.4z"/>
	</g>
</g>
<g id="Mantenimiento" class="st0">
	<g class="st1">
		<path class="st2" d="M448.9,213.6l-35.2-3.2c-3.9-14.4-9.7-28.2-17.4-41.1l22.4-26.4c3.5-4.1,3.2-10.3-0.7-14L377.4,89
			c-3.7-3.7-9.7-3.9-13.7-0.6l-27.2,22.2c-13.2-7.6-27.4-13.4-42.2-17.2L291,59.2c-0.5-5.3-5-9.3-10.3-9.3h-57.5
			c-5.3,0-9.8,4-10.3,9.3l-3.2,34.2c-14.8,3.8-29,9.5-42.2,17.2l-27.2-22.2c-4.1-3.3-10-3-13.7,0.6l-40.7,39.8
			c-3.9,3.8-4.1,9.9-0.7,14l22.4,26.4c-7.7,12.8-13.5,26.6-17.4,41.1L55,213.5c-5.3,0.5-9.4,4.9-9.4,10.3v56.3
			c0,5.3,4.1,9.8,9.4,10.3l35.2,3.2c3.9,14.4,9.7,28.2,17.4,41.1l-22.4,26.4c-3.5,4.1-3.2,10.3,0.7,14l40.7,39.8
			c3.7,3.7,9.7,3.9,13.7,0.6l27.2-22.2c13.2,7.6,27.4,13.4,42.2,17.2l3.2,34.2c0.5,5.3,5,9.3,10.3,9.3h57.5c5.3,0,9.8-4,10.3-9.3
			l3.2-34.2c14.8-3.8,29-9.5,42.2-17.2l27.2,22.2c4.1,3.3,10,3,13.7-0.6l40.7-39.8c3.9-3.8,4.2-9.9,0.7-14l-22.4-26.4
			c7.7-12.8,13.5-26.6,17.4-41.1l35.2-3.2c5.3-0.5,9.4-4.9,9.4-10.3v-56.3C458.2,218.5,454.2,214,448.9,213.6z M437.6,270.8l-33.1,3
			c-4.5,0.4-8.2,3.7-9.1,8.1c-3.7,17.1-10.6,33.4-20.4,48c-2.5,3.8-2.2,8.9,0.7,12.4l21.1,24.9l-27.2,26.7L343.9,373
			c-3.4-2.8-8.3-3.1-12-0.7c-15.1,9.6-31.7,16.4-49.2,20c-4.4,0.9-7.7,4.6-8.2,9.1l-3,32.3h-38.8l-3-32.2c-0.4-4.5-3.7-8.2-8.2-9.1
			c-17.5-3.6-34.2-10.4-49.2-20c-3.8-2.4-8.6-2.1-12,0.7L134.6,394l-27.2-26.7l21.1-24.9c3-3.5,3.3-8.5,0.7-12.4
			c-9.7-14.6-16.6-30.9-20.4-48c-1-4.4-4.7-7.7-9.1-8.1l-33.1-3v-37.5l33.1-3c4.5-0.4,8.2-3.7,9.1-8.1c3.7-17.1,10.6-33.4,20.4-48
			c2.5-3.8,2.2-8.9-0.7-12.4L107.4,137l27.2-26.7l25.7,20.9c3.4,2.8,8.3,3.1,12,0.7c15.1-9.6,31.7-16.4,49.2-20
			c4.4-0.9,7.7-4.6,8.2-9.1l3-32.3h38.8l3,32.3c0.4,4.5,3.7,8.2,8.2,9.1c17.5,3.6,34.2,10.4,49.2,20c3.8,2.4,8.6,2.1,12-0.7
			l25.7-20.9l27.2,26.7l-21.1,24.9c-3,3.5-3.3,8.5-0.7,12.4c9.7,14.6,16.6,30.9,20.4,48c1,4.4,4.7,7.7,9.1,8.1l33.1,3V270.8z"/>
		<path class="st2" d="M252,193.2c-33,0-59.9,26.4-59.9,58.8s26.9,58.8,59.9,58.8s59.9-26.4,59.9-58.8S285,193.2,252,193.2z
			 M252,290.2c-21.6,0-39.2-17.1-39.2-38.2s17.6-38.2,39.2-38.2s39.2,17.1,39.2,38.2S273.6,290.2,252,290.2z"/>
	</g>
</g>
</svg>
